/* XPM */
static char * cuberok_xpm[] = {
"32 31 235 2",
"  	c None",
". 	c #52462F",
"+ 	c #443E36",
"@ 	c #555555",
"# 	c #696969",
"$ 	c #4A4A49",
"% 	c #5F4314",
"& 	c #3A3A3A",
"* 	c #3E3E3E",
"= 	c #434343",
"- 	c #4F4F4F",
"; 	c #616161",
"> 	c #7A7A7A",
", 	c #515151",
"' 	c #5A4B2A",
") 	c #533D1B",
"! 	c #404040",
"~ 	c #4B4B4B",
"{ 	c #5A5A5A",
"] 	c #6A6A6A",
"^ 	c #5B5B5B",
"/ 	c #474746",
"( 	c #98701D",
"_ 	c #2E2B29",
": 	c #3F3F3F",
"< 	c #656565",
"[ 	c #594E2B",
"} 	c #936A19",
"| 	c #373737",
"1 	c #797979",
"2 	c #454544",
"3 	c #B9932F",
"4 	c #433317",
"5 	c #959553",
"6 	c #A0A056",
"7 	c #8D8D51",
"8 	c #7C7C4D",
"9 	c #5C5C45",
"0 	c #3F3F3E",
"a 	c #414141",
"b 	c #56502C",
"c 	c #D5A530",
"d 	c #232322",
"e 	c #44443F",
"f 	c #898950",
"g 	c #A6A656",
"h 	c #DCDC64",
"i 	c #4F4F42",
"j 	c #474747",
"k 	c #707056",
"l 	c #90905A",
"m 	c #595952",
"n 	c #C1A23B",
"o 	c #8D6B1E",
"p 	c #333333",
"q 	c #A6A657",
"r 	c #8A8A50",
"s 	c #AFAF59",
"t 	c #555543",
"u 	c #505050",
"v 	c #545451",
"w 	c #717156",
"x 	c #797957",
"y 	c #A6A65F",
"z 	c #554F2C",
"A 	c #F3CD4A",
"B 	c #342A13",
"C 	c #3C3C3C",
"D 	c #474740",
"E 	c #616146",
"F 	c #7A7A4C",
"G 	c #939352",
"H 	c #77774C",
"I 	c #5F5F5F",
"J 	c #AAAA5F",
"K 	c #5D5D53",
"L 	c #414140",
"M 	c #C5AE44",
"N 	c #D7B13C",
"O 	c #1B1B1B",
"P 	c #7E7E58",
"Q 	c #7A7A57",
"R 	c #53512D",
"S 	c #F9DF5A",
"T 	c #836922",
"U 	c #2D2D2D",
"V 	c #787878",
"W 	c #B3B360",
"X 	c #646454",
"Y 	c #565652",
"Z 	c #8C8C5A",
"` 	c #CAB94D",
" .	c #F9E05B",
"..	c #26200F",
"+.	c #454545",
"@.	c #595959",
"#.	c #696955",
"$.	c #DCDC66",
"%.	c #B6B661",
"&.	c #818158",
"*.	c #52502D",
"=.	c #FAEB67",
"-.	c #D5BA48",
";.	c #121212",
">.	c #2C2C2C",
",.	c #323232",
"'.	c #4E4E4E",
").	c #777757",
"!.	c #DEDE67",
"~.	c #8F8F5B",
"{.	c #3B3B3B",
"].	c #D0C355",
"^.	c #FFF66F",
"/.	c #AA963B",
"(.	c #726628",
"_.	c #5E5321",
":.	c #484019",
"<.	c #342F13",
"[.	c #20200F",
"}.	c #18180F",
"|.	c #151511",
"1.	c #131312",
"2.	c #171717",
"3.	c #1C1C1C",
"4.	c #212121",
"5.	c #262626",
"6.	c #2B2B2B",
"7.	c #303030",
"8.	c #353535",
"9.	c #575757",
"0.	c #626254",
"a.	c #D5D566",
"b.	c #575752",
"c.	c #63632F",
"d.	c #FFFA74",
"e.	c #FFF973",
"f.	c #FFF46D",
"g.	c #FFEE67",
"h.	c #FFE860",
"i.	c #FFE25A",
"j.	c #FFDC53",
"k.	c #FAD34D",
"l.	c #F0C847",
"m.	c #E4BB3F",
"n.	c #D2A633",
"o.	c #BD9028",
"p.	c #A57A1E",
"q.	c #8C6316",
"r.	c #724D0E",
"s.	c #573909",
"t.	c #3C2705",
"u.	c #352104",
"v.	c #525251",
"w.	c #9D9D5D",
"x.	c #686855",
"y.	c #D3C857",
"z.	c #AD9A3D",
"A.	c #746729",
"B.	c #5F5421",
"C.	c #49401A",
"D.	c #353014",
"E.	c #212010",
"F.	c #16160D",
"G.	c #0E0E0A",
"H.	c #090908",
"I.	c #090909",
"J.	c #0B0B0B",
"K.	c #0C0C0C",
"L.	c #0D0D0D",
"M.	c #0F0F0F",
"N.	c #101010",
"O.	c #151515",
"P.	c #4B4925",
"Q.	c #FBF06B",
"R.	c #D8BF4B",
"S.	c #040404",
"T.	c #131313",
"U.	c #141414",
"V.	c #B7B761",
"W.	c #323231",
"X.	c #CEBD50",
"Y.	c #FAE560",
"Z.	c #221C0B",
"`.	c #5D5D5D",
" +	c #BFBF62",
".+	c #4D4A25",
"++	c #FAE45F",
"@+	c #856C24",
"#+	c #1F1F1F",
"$+	c #7F7F7F",
"%+	c #C4C463",
"&+	c #353534",
"*+	c #C9B448",
"=+	c #D9B540",
"-+	c #050505",
";+	c #565651",
">+	c #DFDF67",
",+	c #F4F46A",
"'+	c #5E5E53",
")+	c #504925",
"!+	c #F4D04E",
"~+	c #2D230A",
"{+	c #111111",
"]+	c #606060",
"^+	c #B4B460",
"/+	c #E6E668",
"(+	c #383838",
"_+	c #C4A83E",
":+	c #8E6D1F",
"<+	c #878787",
"[+	c #727256",
"}+	c #524A26",
"|+	c #D7A833",
"1+	c #080807",
"2+	c #202020",
"3+	c #525252",
"4+	c #3D3D3C",
"5+	c #BC9832",
"6+	c #39280B",
"7+	c #181818",
"8+	c #646464",
"9+	c #554A25",
"0+	c #946A18",
"a+	c #8E8E8E",
"b+	c #40403F",
"c+	c #9B731F",
"d+	c #0F0C09",
"e+	c #535353",
"f+	c #544623",
"g+	c #47300A",
"h+	c #585856",
"i+	c #5A3F0D",
"j+	c #1E1E1E",
"k+	c #1A140C",
"l+	c #1D1D1D",
"                                                                ",
"          . + @ #                                               ",
"          $ % & * * * = - ;                                     ",
"        > , ' ) * * * * * * * * ! ~ { ]                         ",
"        ^ , / ( _ * * * * * * * * * * * * : <                   ",
"        , , , [ } | * * * * * * * * * * * * :                   ",
"      1 , , , 2 3 4 * * * * * 5 6 7 8 9 0 * * a                 ",
"      { , , , , b c d * * * * * e * f g h i * * j               ",
"      , , k l m = n o p * * * * 9 q r r r s t * * u             ",
"    1 , v w x y , z A B C * * * * * D E F G H * * * I           ",
"    { , , , , J K L M N O * * * * * * * * * * * * * *           ",
"    , , , , , P Q , R S T U * * * * * * * * * * * * * !         ",
"  V , W X , , Y Z , 0 `  ...& * * * * * * * * * * * * * +.      ",
"  @.#.$.%., , , &., , *.=.-.;.>.,.| C * * * * * * * * * * '.    ",
"  , ).!.~., , , Q , , {.].^./.(._.:.<.[.}.|.1.2.3.4.5.6.7.8.9.  ",
"  , 0.a.b., , , w , , '.c.d.e.f.g.h.i.j.k.l.m.n.o.p.q.r.s.t.u.  ",
"  @.v.w., , , , x., , U y.d.z.A.B.C.D.E.F.G.H.I.J.K.L.M.N.O.    ",
"  1 , v., , Y , v., - P.Q.R.S.N.;.T.T.T.T.T.T.T.T.T.T.T.U.      ",
"    , , , v.V., , , W.X.Y.Z.N.T.T.T.T.T.T.T.T.T.T.T.T.T.        ",
"    `., , P  +, , u .+++@+J.T.T.T.T.T.T.T.T.T.T.T.T.T.#+        ",
"    $+, , %+a.b., &+*+=+-+T.T.T.T.T.T.T.T.T.T.T.T.T.2.          ",
"      , ;+>+,+'+, )+!+~+{+T.T.T.T.T.T.T.T.T.T.T.T.U.            ",
"      ]+, ^+/+, (+_+:+L.T.T.T.T.T.T.T.T.T.T.T.T.T.              ",
"      <+, m [+, }+|+1+T.T.T.T.T.T.T.T.T.T.T.T.T.2+              ",
"        3+, , 4+5+6+;.T.T.T.T.T.T.T.T.T.T.T.T.7+                ",
"        8+, , 9+0+M.T.T.T.T.T.T.T.T.T.T.T.T.U.                  ",
"        a+, b+c+d+T.T.T.T.T.T.T.T.T.T.T.T.U.                    ",
"          e+f+g+T.T.T.T.T.T.T.T.U.7+2+                          ",
"          h+i+N.T.T.T.T.2.j+                                    ",
"            k+2.l+                                              ",
"                                                                "};
