<?xml version="1.0" encoding="UTF-8" standalone="no"?>
<!-- Created with Inkscape (http://www.inkscape.org/) -->
<svg
   xmlns:dc="http://purl.org/dc/elements/1.1/"
   xmlns:cc="http://web.resource.org/cc/"
   xmlns:rdf="http://www.w3.org/1999/02/22-rdf-syntax-ns#"
   xmlns:svg="http://www.w3.org/2000/svg"
   xmlns="http://www.w3.org/2000/svg"
   xmlns:xlink="http://www.w3.org/1999/xlink"
   xmlns:sodipodi="http://sodipodi.sourceforge.net/DTD/sodipodi-0.dtd"
   xmlns:inkscape="http://www.inkscape.org/namespaces/inkscape"
   height="584pt"
   id="svg1"
   inkscape:version="0.45.1"
   sodipodi:docbase="C:\Documents and Settings\makarov\workspace\Cuberok\images"
   sodipodi:docname="star.svg"
   sodipodi:version="0.32"
   width="595pt"
   inkscape:output_extension="org.inkscape.output.svg.inkscape"
   version="1.0"
   inkscape:export-filename="C:\Documents and Settings\makarov\workspace\Cuberok\images\star.png"
   inkscape:export-xdpi="90"
   inkscape:export-ydpi="90">
  <metadata
     id="metadata3">
    <rdf:RDF>
      <cc:Work
         rdf:about="">
        <dc:title>Estrella</dc:title>
        <dc:description>This image was ispire by MDK10 star the word EStrella is spanish for star in case someone is wondering.</dc:description>
        <dc:subject>
          <rdf:Bag>
            <rdf:li />
            <rdf:li>star</rdf:li>
            <rdf:li>shape</rdf:li>
            <rdf:li>geometry</rdf:li>
          </rdf:Bag>
        </dc:subject>
        <dc:publisher>
          <cc:Agent
             rdf:about="http://www.openclipart.org">
            <dc:title>sir (sergio i. rivera)</dc:title>
          </cc:Agent>
        </dc:publisher>
        <dc:creator>
          <cc:Agent>
            <dc:title>sir (sergio i. rivera)</dc:title>
          </cc:Agent>
        </dc:creator>
        <dc:rights>
          <cc:Agent>
            <dc:title>sir (sergio i. rivera)</dc:title>
          </cc:Agent>
        </dc:rights>
        <dc:date />
        <dc:format>image/svg+xml</dc:format>
        <dc:type
           rdf:resource="http://purl.org/dc/dcmitype/StillImage" />
        <cc:license
           rdf:resource="http://web.resource.org/cc/PublicDomain" />
        <dc:language>en</dc:language>
      </cc:Work>
      <cc:License
         rdf:about="http://web.resource.org/cc/PublicDomain">
        <cc:permits
           rdf:resource="http://web.resource.org/cc/Reproduction" />
        <cc:permits
           rdf:resource="http://web.resource.org/cc/Distribution" />
        <cc:permits
           rdf:resource="http://web.resource.org/cc/DerivativeWorks" />
      </cc:License>
    </rdf:RDF>
  </metadata>
  <defs
     id="defs3">
    <linearGradient
       id="linearGradient7154">
      <stop
         style="stop-color:#c3b212;stop-opacity:1;"
         offset="0"
         id="stop7156" />
      <stop
         style="stop-color:#fbf7d0;stop-opacity:1;"
         offset="1"
         id="stop7158" />
    </linearGradient>
    <linearGradient
       id="linearGradient7142">
      <stop
         style="stop-color:#ffffff;stop-opacity:1;"
         offset="0"
         id="stop7144" />
      <stop
         style="stop-color:#ffffff;stop-opacity:0;"
         offset="1"
         id="stop7146" />
    </linearGradient>
    <linearGradient
       id="linearGradient1545">
      <stop
         id="stop1546"
         offset="0.0000000"
         style="stop-color:#ffffff;stop-opacity:1.0000000;" />
      <stop
         id="stop1547"
         offset="1.0000000"
         style="stop-color:#ffffff;stop-opacity:0" />
    </linearGradient>
    <linearGradient
       id="linearGradient1541">
      <stop
         id="stop1542"
         offset="0"
         style="stop-color:#000;stop-opacity:1;" />
      <stop
         id="stop1543"
         offset="1"
         style="stop-color:#fff;stop-opacity:1;" />
    </linearGradient>
    <radialGradient
       inkscape:collect="always"
       xlink:href="#linearGradient1545"
       id="radialGradient7138"
       cx="86.250847"
       cy="135.24612"
       fx="86.250847"
       fy="135.24612"
       r="176.6788"
       gradientTransform="matrix(0.6112179,0.6856696,-1.2416416,1.1068205,251.50664,-123.19937)"
       gradientUnits="userSpaceOnUse" />
    <radialGradient
       inkscape:collect="always"
       xlink:href="#linearGradient7142"
       id="radialGradient7152"
       cx="142.39693"
       cy="102.72335"
       fx="142.39693"
       fy="102.72335"
       r="176.6788"
       gradientTransform="matrix(0.4766906,0.5596912,-0.5888515,0.5015266,122.07864,-41.478237)"
       gradientUnits="userSpaceOnUse" />
    <linearGradient
       inkscape:collect="always"
       xlink:href="#linearGradient7154"
       id="linearGradient7168"
       x1="132.65483"
       y1="81.551773"
       x2="341.4303"
       y2="324.41196"
       gradientUnits="userSpaceOnUse" />
  </defs>
  <sodipodi:namedview
     bordercolor="#666666"
     borderopacity="1.0"
     id="base"
     inkscape:cx="146.87048"
     inkscape:cy="532.29298"
     inkscape:guide-bbox="true"
     inkscape:pageopacity="0.0000000"
     inkscape:pageshadow="2"
     inkscape:window-height="654"
     inkscape:window-width="881"
     inkscape:window-x="49"
     inkscape:window-y="14"
     inkscape:zoom="0.42037671"
     pagecolor="#ffffff"
     showguides="true"
     inkscape:current-layer="layer1" />
  <path
     d="M 338.09785,334.71146 C 308.18235,358.99579 267.41091,318.39587 228.93479,320.45843 C 190.45868,322.52099 154.26123,367.24692 121.92106,346.29987 C 89.580888,325.35282 115.59464,274.03081 101.74326,238.07522 C 87.891872,202.11962 34.169356,181.51488 44.09752,144.28455 C 54.025685,107.05423 110.87451,115.9354 140.79,91.651061 C 170.70549,67.366723 173.7006,9.9063582 212.17671,7.8438004 C 250.65283,5.7812424 259.77358,62.592123 292.11376,83.539172 C 324.45393,104.48622 380.02752,89.578503 393.8789,125.5341 C 407.73029,161.48969 356.5184,187.71957 346.59023,224.9499 C 336.66207,262.18023 368.01334,310.42712 338.09785,334.71146 z "
     inkscape:randomized="0"
     inkscape:rounded="0.35"
     inkscape:flatsided="false"
     sodipodi:arg2="1.5172414"
     sodipodi:arg1="0.88892284"
     sodipodi:r2="128.90849"
     sodipodi:r1="184.15498"
     sodipodi:cy="191.73476"
     sodipodi:cx="222.03441"
     sodipodi:sides="5"
     id="path2214"
     style="fill:#000000;fill-opacity:1;stroke:none;stroke-width:1.25;stroke-miterlimit:4;stroke-dasharray:none;stroke-opacity:1"
     sodipodi:type="star" />
  <path
     sodipodi:type="star"
     style="fill:#ffb913;fill-opacity:1;stroke:none;stroke-width:1.25;stroke-miterlimit:4;stroke-dasharray:none;stroke-opacity:1"
     id="path3188"
     sodipodi:sides="5"
     sodipodi:cx="222.03441"
     sodipodi:cy="191.73476"
     sodipodi:r1="184.15498"
     sodipodi:r2="128.90849"
     sodipodi:arg1="0.88892284"
     sodipodi:arg2="1.5172414"
     inkscape:flatsided="false"
     inkscape:rounded="0.35"
     inkscape:randomized="0"
     d="M 338.09785,334.71146 C 308.18235,358.99579 267.41091,318.39587 228.93479,320.45843 C 190.45868,322.52099 154.26123,367.24692 121.92106,346.29987 C 89.580888,325.35282 115.59464,274.03081 101.74326,238.07522 C 87.891872,202.11962 34.169356,181.51488 44.09752,144.28455 C 54.025685,107.05423 110.87451,115.9354 140.79,91.651061 C 170.70549,67.366723 173.7006,9.9063582 212.17671,7.8438004 C 250.65283,5.7812424 259.77358,62.592123 292.11376,83.539172 C 324.45393,104.48622 380.02752,89.578503 393.8789,125.5341 C 407.73029,161.48969 356.5184,187.71957 346.59023,224.9499 C 336.66207,262.18023 368.01334,310.42712 338.09785,334.71146 z "
     transform="matrix(0.9657798,0,0,0.9657798,5.6726162,3.630702)" />
  <path
     transform="matrix(0.8900065,0,0,0.8900065,18.87622,15.99546)"
     d="M 338.09785,334.71146 C 308.18235,358.99579 267.41091,318.39587 228.93479,320.45843 C 190.45868,322.52099 154.26123,367.24692 121.92106,346.29987 C 89.580888,325.35282 115.59464,274.03081 101.74326,238.07522 C 87.891872,202.11962 34.169356,181.51488 44.09752,144.28455 C 54.025685,107.05423 110.87451,115.9354 140.79,91.651061 C 170.70549,67.366723 173.7006,9.9063582 212.17671,7.8438004 C 250.65283,5.7812424 259.77358,62.592123 292.11376,83.539172 C 324.45393,104.48622 380.02752,89.578503 393.8789,125.5341 C 407.73029,161.48969 356.5184,187.71957 346.59023,224.9499 C 336.66207,262.18023 368.01334,310.42712 338.09785,334.71146 z "
     inkscape:randomized="0"
     inkscape:rounded="0.35"
     inkscape:flatsided="false"
     sodipodi:arg2="1.5172414"
     sodipodi:arg1="0.88892284"
     sodipodi:r2="128.90849"
     sodipodi:r1="184.15498"
     sodipodi:cy="191.73476"
     sodipodi:cx="222.03441"
     sodipodi:sides="5"
     id="path4159"
     style="fill:url(#linearGradient7168);fill-opacity:1;stroke:none;stroke-width:1.25;stroke-miterlimit:4;stroke-dasharray:none;stroke-opacity:1"
     sodipodi:type="star" />
  <path
     sodipodi:type="star"
     style="fill:#ffe837;fill-opacity:1;stroke:none;stroke-width:1.25;stroke-miterlimit:4;stroke-dasharray:none;stroke-opacity:1"
     id="path5130"
     sodipodi:sides="5"
     sodipodi:cx="222.03441"
     sodipodi:cy="191.73476"
     sodipodi:r1="184.15498"
     sodipodi:r2="128.90849"
     sodipodi:arg1="0.88892284"
     sodipodi:arg2="1.5172414"
     inkscape:flatsided="false"
     inkscape:rounded="0.35"
     inkscape:randomized="0"
     d="M 338.09785,334.71146 C 308.18235,358.99579 267.41091,318.39587 228.93479,320.45843 C 190.45868,322.52099 154.26123,367.24692 121.92106,346.29987 C 89.580888,325.35282 115.59464,274.03081 101.74326,238.07522 C 87.891872,202.11962 34.169356,181.51488 44.09752,144.28455 C 54.025685,107.05423 110.87451,115.9354 140.79,91.651061 C 170.70549,67.366723 173.7006,9.9063582 212.17671,7.8438004 C 250.65283,5.7812424 259.77358,62.592123 292.11376,83.539172 C 324.45393,104.48622 380.02752,89.578503 393.8789,125.5341 C 407.73029,161.48969 356.5184,187.71957 346.59023,224.9499 C 336.66207,262.18023 368.01334,310.42712 338.09785,334.71146 z "
     transform="matrix(0.8224001,0,0,0.8224001,33.230298,29.691661)" />
  <g
     inkscape:groupmode="layer"
     id="layer1"
     inkscape:label="blink"
     style="display:inline">
    <path
       d="M 338.09785,334.71146 C 308.18235,358.99579 267.41091,318.39587 228.93479,320.45843 C 190.45868,322.52099 154.26123,367.24692 121.92106,346.29987 C 89.580888,325.35282 115.59464,274.03081 101.74326,238.07522 C 87.891872,202.11962 34.169356,181.51488 44.09752,144.28455 C 54.025685,107.05423 110.87451,115.9354 140.79,91.651061 C 170.70549,67.366723 173.7006,9.9063582 212.17671,7.8438004 C 250.65283,5.7812424 259.77358,62.592123 292.11376,83.539172 C 324.45393,104.48622 380.02752,89.578503 393.8789,125.5341 C 407.73029,161.48969 356.5184,187.71957 346.59023,224.9499 C 336.66207,262.18023 368.01334,310.42712 338.09785,334.71146 z "
       inkscape:randomized="0"
       inkscape:rounded="0.35"
       inkscape:flatsided="false"
       sodipodi:arg2="1.5172414"
       sodipodi:arg1="0.88892284"
       sodipodi:r2="128.90849"
       sodipodi:r1="184.15498"
       sodipodi:cy="191.73476"
       sodipodi:cx="222.03441"
       sodipodi:sides="5"
       id="path6161"
       style="opacity:0.56637166;fill:url(#radialGradient7138);fill-opacity:1;stroke:none;stroke-width:1.25;stroke-miterlimit:4;stroke-dasharray:none;stroke-opacity:1"
       sodipodi:type="star"
       transform="translate(0.791924,-0.7106412)" />
    <path
       sodipodi:type="star"
       style="fill:url(#radialGradient7152);fill-opacity:1;stroke:none;stroke-width:1.25;stroke-miterlimit:4;stroke-dasharray:none;stroke-opacity:1"
       id="path7140"
       sodipodi:sides="5"
       sodipodi:cx="222.03441"
       sodipodi:cy="191.73476"
       sodipodi:r1="184.15498"
       sodipodi:r2="128.90849"
       sodipodi:arg1="0.88892284"
       sodipodi:arg2="1.5172414"
       inkscape:flatsided="false"
       inkscape:rounded="0.35"
       inkscape:randomized="0"
       d="M 338.09785,334.71146 C 308.18235,358.99579 267.41091,318.39587 228.93479,320.45843 C 190.45868,322.52099 154.26123,367.24692 121.92106,346.29987 C 89.580888,325.35282 115.59464,274.03081 101.74326,238.07522 C 87.891872,202.11962 34.169356,181.51488 44.09752,144.28455 C 54.025685,107.05423 110.87451,115.9354 140.79,91.651061 C 170.70549,67.366723 173.7006,9.9063582 212.17671,7.8438004 C 250.65283,5.7812424 259.77358,62.592123 292.11376,83.539172 C 324.45393,104.48622 380.02752,89.578503 393.8789,125.5341 C 407.73029,161.48969 356.5184,187.71957 346.59023,224.9499 C 336.66207,262.18023 368.01334,310.42712 338.09785,334.71146 z "
       transform="matrix(0.8170762,0,0,0.8170762,32.544354,31.277465)" />
  </g>
</svg>
