/* XPM */
static char * cuberok_xpm[] = {
"32 32 320 2",
"  	c None",
". 	c #353535",
"+ 	c #535353",
"@ 	c #1E1E1E",
"# 	c #9E9E9E",
"$ 	c #636363",
"% 	c #5E5E5E",
"& 	c #7D7D7D",
"* 	c #2C2C2C",
"= 	c #030201",
"- 	c #848484",
"; 	c #262626",
"> 	c #8B8B8B",
", 	c #1D1700",
"' 	c #775F00",
") 	c #3C3C3C",
"! 	c #606060",
"~ 	c #818181",
"{ 	c #252525",
"] 	c #987A00",
"^ 	c #EBBC00",
"/ 	c #141001",
"( 	c #8D8D8D",
"_ 	c #292929",
": 	c #898989",
"< 	c #261F00",
"[ 	c #F6C500",
"} 	c #FFCC00",
"| 	c #7C6300",
"1 	c #3E3E3E",
"2 	c #676767",
"3 	c #8A8A8A",
"4 	c #1D1D1D",
"5 	c #A18100",
"6 	c #E8BA00",
"7 	c #120E01",
"8 	c #949494",
"9 	c #343434",
"0 	c #828282",
"a 	c #2D2400",
"b 	c #F9C700",
"c 	c #E7B900",
"d 	c #715A00",
"e 	c #414141",
"f 	c #6C6C6C",
"g 	c #191919",
"h 	c #AB8900",
"i 	c #8E7100",
"j 	c #927500",
"k 	c #0E0B02",
"l 	c #989898",
"m 	c #7B7B7B",
"n 	c #332900",
"o 	c #FCCA00",
"p 	c #F2C100",
"q 	c #735C00",
"r 	c #655000",
"s 	c #464646",
"t 	c #6E6E6E",
"u 	c #909090",
"v 	c #151515",
"w 	c #A38200",
"x 	c #A48300",
"y 	c #221B00",
"z 	c #917400",
"A 	c #E5B700",
"B 	c #100D03",
"C 	c #A1A1A1",
"D 	c #767676",
"E 	c #282000",
"F 	c #AC8900",
"G 	c #FECB00",
"H 	c #8D7100",
"I 	c #DDB100",
"J 	c #443600",
"K 	c #413400",
"L 	c #FBC900",
"M 	c #6F5900",
"N 	c #494949",
"O 	c #737373",
"P 	c #979797",
"Q 	c #11100E",
"R 	c #403300",
"S 	c #C9A100",
"T 	c #C39C00",
"U 	c #312700",
"V 	c #D9AE00",
"W 	c #030200",
"X 	c #EFBF00",
"Y 	c #675300",
"Z 	c #0C0A02",
"` 	c #A9A9A9",
" .	c #4A4A4A",
"..	c #453700",
"+.	c #604D00",
"@.	c #D7AC00",
"#.	c #7F6500",
"$.	c #473800",
"%.	c #473900",
"&.	c #514100",
"*.	c #D0A600",
"=.	c #6D5700",
"-.	c #4C4C4C",
";.	c #797979",
">.	c #9A9A9A",
",.	c #0D0C0B",
"'.	c #A98700",
").	c #F8C700",
"!.	c #261E00",
"~.	c #DBAF00",
"{.	c #F3C200",
"].	c #B59100",
"^.	c #B49000",
"/.	c #8C7000",
"(.	c #030303",
"_.	c #ADADAD",
":.	c #666666",
"<.	c #4D3D00",
"[.	c #826700",
"}.	c #AA8800",
"|.	c #755E00",
"1.	c #DEB100",
"2.	c #A58400",
"3.	c #A28100",
"4.	c #040300",
"5.	c #060500",
"6.	c #505050",
"7.	c #7C7C7C",
"8.	c #9B9B9B",
"9.	c #0C0B09",
"0.	c #C79F00",
"a.	c #C8A000",
"b.	c #A08000",
"c.	c #FAC800",
"d.	c #EFC000",
"e.	c #EEBE00",
"f.	c #FDCB00",
"g.	c #050400",
"h.	c #4C3C00",
"i.	c #C9A000",
"j.	c #0D0B04",
"k.	c #B4B4B4",
"l.	c #595959",
"m.	c #433600",
"n.	c #110E00",
"o.	c #CBA300",
"p.	c #BE9800",
"q.	c #AE8C00",
"r.	c #DFB200",
"s.	c #816700",
"t.	c #B18E00",
"u.	c #0B0900",
"v.	c #806700",
"w.	c #5A4800",
"x.	c #808080",
"y.	c #9F9F9F",
"z.	c #0C0B05",
"A.	c #665100",
"B.	c #ECBD00",
"C.	c #C69E00",
"D.	c #614D00",
"E.	c #E2B500",
"F.	c #EABB00",
"G.	c #B79200",
"H.	c #191400",
"I.	c #705900",
"J.	c #201B08",
"K.	c #090804",
"L.	c #BBBBBB",
"M.	c #646464",
"N.	c #545454",
"O.	c #3D3000",
"P.	c #D6AB00",
"Q.	c #856A00",
"R.	c #EDBD00",
"S.	c #9D7E00",
"T.	c #E6B800",
"U.	c #BD9700",
"V.	c #392D00",
"W.	c #CDA400",
"X.	c #937600",
"Y.	c #F1C100",
"Z.	c #634F00",
"`.	c #565656",
" +	c #868686",
".+	c #0C0B04",
"++	c #8A6F00",
"@+	c #C39B00",
"#+	c #B38F00",
"$+	c #997B00",
"%+	c #886C00",
"&+	c #C49C00",
"*+	c #D1A700",
"=+	c #645000",
"-+	c #F2C200",
";+	c #0C0A04",
">+	c #BEBEBE",
",+	c #6A6A6A",
"'+	c #6A5400",
")+	c #AF8C00",
"!+	c #4B3C00",
"~+	c #806600",
"{+	c #E1B300",
"]+	c #C29B00",
"^+	c #8A6E00",
"/+	c #E8B900",
"(+	c #9F7F00",
"_+	c #7A6100",
":+	c #F4C400",
"<+	c #2B2200",
"[+	c #5A5A5A",
"}+	c #9C9C9C",
"|+	c #0F0C03",
"1+	c #9B7C00",
"2+	c #584600",
"3+	c #8B6F00",
"4+	c #A58300",
"5+	c #AE8B00",
"6+	c #AB8800",
"7+	c #F4C300",
"8+	c #D5AB00",
"9+	c #B08C00",
"0+	c #896D00",
"a+	c #493B00",
"b+	c #1F1800",
"c+	c #1E1800",
"d+	c #4D3E00",
"e+	c #0C0B07",
"f+	c #C2C2C2",
"g+	c #282828",
"h+	c #707070",
"i+	c #444444",
"j+	c #957700",
"k+	c #BA9400",
"l+	c #C59D00",
"m+	c #D4A900",
"n+	c #A88600",
"o+	c #8F7200",
"p+	c #D4AA00",
"q+	c #5C4900",
"r+	c #8C8C8C",
"s+	c #130F01",
"t+	c #FDCA00",
"u+	c #372C00",
"v+	c #E1B400",
"w+	c #D8AD00",
"x+	c #E9BB00",
"y+	c #CCA400",
"z+	c #CFA600",
"A+	c #B08D00",
"B+	c #9E7E00",
"C+	c #624E00",
"D+	c #070707",
"E+	c #CACACA",
"F+	c #3A3A3A",
"G+	c #F6C400",
"H+	c #070600",
"I+	c #0F0C00",
"J+	c #A18000",
"K+	c #342900",
"L+	c #DFB300",
"M+	c #AD8A00",
"N+	c #BB9600",
"O+	c #B18D00",
"P+	c #B28E00",
"Q+	c #616161",
"R+	c #929292",
"S+	c #999999",
"T+	c #151101",
"U+	c #292000",
"V+	c #000000",
"W+	c #1F1900",
"X+	c #EDBE00",
"Y+	c #F7C600",
"Z+	c #9A7B00",
"`+	c #7E6500",
" @	c #352A00",
".@	c #090806",
"+@	c #CECECE",
"@@	c #303030",
"#@	c #7F7F7F",
"$@	c #866B00",
"%@	c #BA9500",
"&@	c #161200",
"*@	c #DAAF00",
"=@	c #685300",
"-@	c #BB9500",
";@	c #B69100",
">@	c #876C00",
",@	c #A68500",
"'@	c #977900",
")@	c #656565",
"!@	c #959595",
"~@	c #242424",
"{@	c #191401",
"]@	c #DEB200",
"^@	c #BF9900",
"/@	c #CAA200",
"(@	c #A78600",
"_@	c #9C7D00",
":@	c #B89300",
"<@	c #0C0B0A",
"[@	c #D1D1D1",
"}@	c #696969",
"|@	c #2D2D2D",
"1@	c #3D3100",
"2@	c #7B6200",
"3@	c #2C2300",
"4@	c #564400",
"5@	c #534200",
"6@	c #483900",
"7@	c #151100",
"8@	c #3C2F00",
"9@	c #1C1700",
"0@	c #747474",
"a@	c #454545",
"b@	c #393939",
"c@	c #717171",
"d@	c #4E4E4E",
"e@	c #4D4D4D",
"                              . +                               ",
"                            @ # $ %                             ",
"                            & * = -                             ",
"                          ; > , ' ) !                           ",
"                          ~ { ] ^ / (                           ",
"                        _ : < [ } | 1 2                         ",
"                        3 4 5 } } 6 7 8                         ",
"                      9 0 a b } } c d e f                       ",
"                      ( g h } } } i j k l                       ",
"                    ) m n o } } p q , r s t                     ",
"                    u v w } } } x y z A B C                     ",
"                  e D E F G H I J K L } M N O                   ",
"                  P Q R S T U V W ' | X Y Z `                   ",
"                 .t ..+.p I @.#.$.%.&.' *.=.-.;.                ",
"                >.,.'.+.G } ).!.~.{.].^.} /.(._.                ",
"              + :.<.o [.} } }.|.} 1.2.} 3.4.5.6.7.              ",
"              8.9.0.a.b.} c.<.d.e.z f.'.g.h.i.j.k.              ",
"            l.% m.b n.o.p.q.H r.s.[ t.u.v.c.} w.+ x.            ",
"            y.z.A.*.u.B.C.D.E.[.F.G.H.].} X I.J.K.L.@           ",
"          M.N.O.p.P.Q.R.a.S.).T.U.V.W.o F ..X.Y.Z.`. +          ",
"          # .+++@+#+$+o %+L } &+w.^ *+=+] -+} } V ;+>+;         ",
"        ,+-.'+)+Z.!+I.{.~+{+]+^+/+z (+b._+} } :+S <+[+:         ",
"        }+|+E.{.a.1+X.F 2+3+4+5+6+7+} 8+9+0+a+b+c+d+e+f+g+      ",
"      h+i+q } *.j+X ~.} k+l+(+m+0.n+o+Q.j+^.p+F.).} q+% r+      ",
"      # s+T.t+u+~+@.S.v+R.t+w+x+b 7+y+@.~.z+]+A+B+o+C+D+E+g+    ",
"    m F+| } G+H+I+U J+K+L+p.M+}.G.N+S.}.A+O+O+P+#+O+5+a+Q+R+    ",
"    S+T+B.} L U+V+W+A G X+b b } Y+c T B+Z+`++.R K+ @R R .@+@@@  ",
"  #@9 $@} } } %@&@g.U *@h.=@-@;@^+P.%@>@[ } } G ^ W.,@'@K+)@!@  ",
"~@!@{@-+} } } } -+]@7+^ X ^@v.P+{./@].(@_@:@v+c.} } } } *.<@[@@@",
"}@|@1@3+3+3+3+3+3+3+3+3+3+3+2@3@w.^+4@5@| 6@7@8@%+3+3+3+3+9@}@0@",
"s a@b@b@b@b@b@b@b@b@b@b@b@b@b@b@b@b@b@b@b@b@b@b@b@b@b@b@b@b@c@+ ",
"  d@t t t t t t t t t t t t t t t t t t t t t t t t t t t t e@  "};
